Coordinates
version=1
nRows=17
nColumns=24
inDegrees=yes

Units are S.I. units (second, meters, Newtons, ...)
Angles are in degrees.

endheader
time	pelvis_tilt	pelvis_list	pelvis_rotation	pelvis_tx	pelvis_ty	pelvis_tz	hip_flexion_r	hip_adduction_r	hip_rotation_r	knee_angle_r	ankle_angle_r	subtalar_angle_r	mtp_angle_r	hip_flexion_l	hip_adduction_l	hip_rotation_l	knee_angle_l	ankle_angle_l	subtalar_angle_l	mtp_angle_l	lumbar_extension	lumbar_bending	lumbar_rotation
      5.49500000	    -10.28836365	      0.09960660	     -7.12318852	     -1.08498019	     -0.02359463	     -0.28058250	     -3.63348342	      3.58802220	      7.33972499	    -16.23021871	     26.80762375	     16.90788538	    -37.61957508	     33.29883323	     -2.33379368	     -2.58524537	     -6.66041061	      0.11396349	      0.56971181	      7.23695778	      7.49819457	      0.42515610	     13.65191555
      5.50000000	    -10.35183220	      0.16549760	     -7.19256256	     -1.07847259	     -0.02449217	     -0.28111496	     -3.71494560	      3.38817162	      7.07250511	    -16.73104523	     26.68649921	     17.47394431	    -37.13374773	     33.37185708	     -2.26010993	     -2.60052685	     -7.35374626	     -0.07607725	      0.28733383	      7.29884077	      7.72881117	      0.37445773	     13.75114350
      5.50500000	    -10.41358487	      0.23744460	     -7.26572015	     -1.07193724	     -0.02535504	     -0.28166560	     -3.78866739	      3.17421440	      6.79421234	    -17.23890200	     26.50044030	     18.06617409	    -36.51191587	     33.43327467	     -2.18068909	     -2.60588717	     -8.04589186	     -0.36401472	     -0.04706133	      7.37353366	      7.96480954	      0.32033623	     13.85554126
      5.51000000	    -10.46011262	      0.29123328	     -7.26747153	     -1.06539819	     -0.02616200	     -0.28223059	     -3.93528463	      3.01766380	      6.77348315	    -17.59054928	     25.24616091	     18.31655519	    -32.58124735	     33.45460050	     -2.07403543	     -2.43110413	     -8.64993411	     -1.02232504	     -0.70248683	      7.95631541	      8.17217661	      0.25162498	     13.83756327
      5.51500000	    -10.50874064	      0.42539711	     -7.35922766	     -1.05880502	     -0.02690457	     -0.28278075	     -3.97650241	      2.72276729	      6.46912617	    -18.16294344	     25.09893523	     18.95619261	    -32.34677630	     33.51095326	     -1.95133778	     -2.68421681	     -9.36006783	     -1.28369733	     -0.76908891	      7.94121318	      8.41106370	      0.13540038	     13.99858370
      5.52000000	    -10.57249980	      0.54153269	     -7.33158509	     -1.05228703	     -0.02762425	     -0.28354399	     -3.98059756	      2.43507577	      5.96142266	    -18.75368595	     24.76325151	     19.69573871	    -31.52569432	     33.58333816	     -1.76025516	     -2.61796044	    -10.01135907	     -1.81773956	     -1.16761633	      8.03472835	      8.64101178	      0.02094422	     14.00229115
      5.52500000	    -10.64703994	      0.76507761	     -7.23706565	     -1.04565526	     -0.02826879	     -0.28432679	     -3.98767005	      2.04900671	      5.54817919	    -19.28166527	     24.02852738	     20.30683662	    -29.40758914	     33.64551861	     -1.42599184	     -2.50103738	    -10.57164282	     -2.58143981	     -1.71219077	      8.39995650	      8.91888507	     -0.23720452	     13.90585268
      5.53000000	    -10.71945912	      1.05591305	     -7.36676085	     -1.03911786	     -0.02873278	     -0.28483396	     -3.92306807	      1.59068913	      5.45303416	    -19.92578089	     23.71277360	     20.86363930	    -29.06233183	     33.71491525	     -1.17036814	     -2.82601478	    -11.19400557	     -3.01460943	     -1.81967359	      8.36365286	      9.19920838	     -0.51260769	     14.14739537
      5.53500000	    -10.77470492	      1.31577077	     -7.34004401	     -1.03269656	     -0.02908944	     -0.28557267	     -3.88199407	      1.15929880	      5.13791885	    -20.43847308	     22.10370608	     21.45441288	    -24.32374644	     33.75575182	     -0.82108944	     -2.67330465	    -11.71752362	     -3.89724089	     -2.46938205	      8.86769454	      9.42599619	     -0.79155185	     14.17286974
      5.54000000	    -10.83588581	      1.63728455	     -7.24160172	     -1.02625270	     -0.02942543	     -0.28635140	     -3.75756768	      0.63479287	      4.54932851	    -21.19317448	     21.75773213	     22.28531734	    -23.98329972	     33.87500168	     -0.39616348	     -2.71664874	    -12.40097346	     -4.25507141	     -2.33835121	      8.84753120	      9.66989301	     -1.16219129	     14.12646297
      5.54500000	    -10.91054677	      1.97165849	     -6.99151044	     -1.01980430	     -0.02965841	     -0.28742943	     -3.64481371	      0.09398311	      3.88956847	    -21.85116842	     20.79341091	     23.05557902	    -21.81350342	     33.97901842	      0.19640800	     -2.15703901	    -13.01153830	     -4.95474010	     -2.96666736	      8.58420512	      9.92395057	     -1.56224031	     13.91797786
      5.55000000	    -10.95857356	      2.35190034	     -6.94802387	     -1.01341361	     -0.02966530	     -0.28811769	     -3.49757460	     -0.49584267	      3.44165108	    -22.48645488	     19.10023102	     23.78626600	    -17.46720597	     34.06731674	      0.67482948	     -2.13931794	    -13.69371808	     -5.28704575	     -2.89501890	      8.28346510	     10.15497706	     -1.98569294	     13.96802251
      5.55500000	    -11.00281308	      2.77327830	     -6.81052278	     -1.00697712	     -0.02968909	     -0.28884264	     -3.30252683	     -1.14682518	      2.83228117	    -23.35728076	     18.56376700	     24.68150355	    -17.17128934	     34.16619100	      1.24117799	     -2.01464298	    -14.39292253	     -5.61010125	     -2.68737438	      8.29537144	     10.39289037	     -2.48741696	     13.92140478
      5.56000000	    -10.98568041	      3.15485679	     -6.60483012	     -1.00056715	     -0.02952841	     -0.28976401	     -3.19866482	     -1.77353729	      2.14434829	    -24.01368808	     16.56421857	     25.48054512	    -12.26354691	     34.16971978	      1.88293644	     -1.44003252	    -15.09574955	     -5.79718651	     -2.83840633	      7.33714295	     10.53928628	     -2.95789926	     13.83204296
      5.56500000	    -11.01578127	      3.53594732	     -6.37754536	     -0.99411266	     -0.02938789	     -0.29062772	     -2.99939323	     -2.40643349	      1.39049810	    -24.81914034	     15.06052058	     26.34278832	     -9.40889142	     34.22217242	      2.51470566	     -0.96159168	    -15.77562996	     -6.09456253	     -2.88600197	      6.99736275	     10.74679423	     -3.43760598	     13.69944900
      5.57000000	    -11.10144861	      3.92102972	     -6.10241192	     -0.98761451	     -0.02928964	     -0.29160538	     -2.69685086	     -3.06630881	      0.54674317	    -25.77606720	     13.95795947	     27.30266678	     -8.22650148	     34.30274357	      3.20165647	     -0.26883576	    -16.40987093	     -6.46757162	     -3.16139887	      6.60336120	     11.01915973	     -3.91393508	     13.53274580
      5.57500000	    -11.03546173	      4.26397522	     -5.89367245	     -0.98112388	     -0.02895573	     -0.29238270	     -2.56651576	     -3.68710967	     -0.20177556	    -26.54742280	     11.71160302	     28.08899568	     -3.69435600	     34.22542557	      3.80226243	      0.12667674	    -17.11902918	     -6.29583329	     -2.89970103	      5.53729139	     11.10944072	     -4.36798078	     13.42762651
